{"title":"Ronin.1998.1080p.BluRay.x264.DTS-FGT","uid":12159547,"size":12312692650,"categoryP":"video","categoryS":"hd___movies","magnet":"?xt=urn:btih:7e5befcf9cc460347b57c34a4098c5bb8c46d4f2&amp;dn=Ronin.1998.1080p.BluRay.x264.DTS-FGT&amp;tr=udp%3A%2F%2Ftracker.openbittorrent.com%3A80&amp;tr=udp%3A%2F%2Fopen.demonii.com%3A1337&amp;tr=udp%3A%2F%2Ftracker.coppersurfer.tk%3A6969&amp;tr=udp%3A%2F%2Fexodus.desync.com%3A6969","seeders":0,"leechers":1,"uploader":null,"files":3,"time":1437854877,"description":"Video\nID                                       : 1\nFormat                                   : AVC\nFormat/Info                              : Advanced Video Codec\nFormat profile                           : &lt;a class=&quot;__cf_email__&quot; href=&quot;/cdn-cgi/l/email-protection&quot; data-cfemail=&quot;97dffef0ffd7dba3b9a6&quot;&gt;[email&amp;#160;protected]&lt;/a&gt;&lt;script data-cfhash='f9e31' type=&quot;text/javascript&quot;&gt;\n/* &lt;![CDATA[ */!function(){try{var t=&quot;currentScript&quot;in document?document.currentScript:function(){for(var t=document.getElementsByTagName(&quot;script&quot;),e=t.length;e--;)if(t[e].getAttribute(&quot;data-cfhash&quot;))return t[e]}();if(t&amp;&amp;t.previousSibling){var e,r,n,i,c=t.previousSibling,a=c.getAttribute(&quot;data-cfemail&quot;);if(a){for(e=&quot;&quot;,r=parseInt(a.substr(0,2),16),n=2;a.length-n;n+=2)i=parseInt(a.substr(n,2),16)^r,e+=String.fromCharCode(i);e=document.createTextNode(e),c.parentNode.replaceChild(e,c)}t.parentNode.removeChild(t);}}catch(u){}}()/* ]]&gt; */&lt;/script&gt;\nFormat settings, CABAC                   : Yes\nFormat settings, ReFrames                : 5 frames\nCodec ID                                 : V_MPEG4/ISO/AVC\nDuration                                 : 2h 1mn\nBit rate                                 : 12.0 Mbps\nWidth                                    : 1 920 pixels\nHeight                                   : 812 pixels\nDisplay aspect ratio                     : 2.35:1\nFrame rate mode                          : Constant\nFrame rate                               : 23.976 fps\nColor space                              : YUV\nChroma subsampling                       : 4:2:0\nBit depth                                : 8 bits\nScan type                                : Progressive\nBits/(Pixel*Frame)                       : 0.321\nStream size                              : 9.96 GiB (87%)\nWriting library                          : x264 core 142 r2431+42 c69a006 tMod [8-bit@4:2:0 X86_64]\nEncoding settings                        : cabac=1 / ref=5 / deblock=1:-2:-2 / analyse=0x3:0x133 / me=umh / subme=11 / psy=1 / fade_compensate=0.00 / psy_rd=1.00:0.00 / mixed_ref=1 / me_range=32 / chroma_me=1 / trellis=2 / 8x8dct=1 / cqm=0 / deadzone=21,11 / fast_pskip=0 / chroma_qp_offset=-2 / threads=12 / lookahead_threads=3 / sliced_threads=0 / nr=0 / decimate=1 / interlaced=0 / bluray_compat=0 / constrained_intra=0 / fgo=0 / bframes=10 / b_pyramid=2 / b_adapt=2 / b_bias=0 / direct=3 / weightb=1 / open_gop=0 / weightp=2 / keyint=250 / keyint_min=23 / scenecut=40 / intra_refresh=0 / rc_lookahead=120 / rc=2pass / mbtree=1 / bitrate=12000 / ratetol=1.0 / qcomp=0.70 / qpmin=0:0:0 / qpmax=69:69:69 / qpstep=4 / cplxblur=20.0 / qblur=0.5 / vbv_maxrate=62500 / vbv_bufsize=78125 / nal_hrd=none / filler=0 / ip_ratio=1.40 / aq=4:0.70 / aq-sensitivity=11.00 / aq-factor=1.00:1.00:1.00 / aq2=1:0.60 / aq2-sensitivity=9.00 / aq2-factor=1.00:1.00:1.00 / aq3=1:[0.60:0.60]:[0.60:0.60]:[0.60:0.60]:[0.60:0.60] / aq3-sensitivity=10.00 / aq3-factor=[1.00:1.00]:[1.00:1.00]:[1.00:1.00] / aq3-boundary=192:64:24\nLanguage                                 : English\nDefault                                  : Yes\nForced                                   : No\nColor range                              : Limited\nColor primaries                          : BT.709\nTransfer characteristics                 : BT.709\nMatrix coefficients                      : BT.709\n\nAudio\nID                                       : 2\nFormat                                   : DTS\nFormat/Info                              : Digital Theater Systems\nMode                                     : 16\nFormat settings, Endianness              : Big\nCodec ID                                 : A_DTS\nDuration                                 : 2h 1mn\nBit rate mode                            : Constant\nBit rate                                 : 1 509 Kbps\nChannel(s)                               : 6 channels\nChannel positions                        : Front: L C R, Side: L R, LFE\nSampling rate                            : 48.0 KHz\nBit depth                                : 24 bits\nCompression mode                         : Lossy\nStream size                              : 1.28 GiB (11%)\nLanguage                                 : English\nDefault                                  : Yes\nForced                                   : No\n\nText\nID                                       : 3\nFormat                                   : UTF-8\nCodec ID                                 : S_TEXT/UTF8\nCodec ID/Info                            : UTF-8 Plain Text\nLanguage                                 : English\nDefault                                  : No\nForced                                   : No\n\nMenu\n00:00:00.000                             : en:Start\n00:07:01.796                             : en:Team Dynamics\n00:10:28.962                             : en:Botched Exchange\n00:15:23.339                             : en:New Negotiations\n00:17:22.083                             : enhotographic Study\n00:18:55.051                             : en:Remote Sensor Tracking\n00:24:12.785                             : en:In Search of Gregor\n00:26:20.662                             : en:Answering to the Boss\n00:27:20.138                             : en:Those Who Wait...\n00:31:22.172                             : en:The Link to the Case\n00:33:54.491                             : en:Ice-Skating Gala\n00:39:19.899                             : en:Farewell\n00:41:19.352                             : en:Bull's-Eye Bombing\n00:45:21.719                             : en:Chasing the Target\n00:49:51.238                             : en:Crashing the Case\n00:51:35.843                             : en:Spiritual Doctor\n00:54:35.564                             : en:&quot;Life Is Uncertain&quot;\n00:57:32.240                             : en:Gregor's Icy Ring\n00:58:53.238                             : en:&quot;I Need Your Help!&quot;\n01:01:21.344                             : en:The Arena Massacre\n01:09:04.599                             : enirecting Surgery\n01:14:48.275                             : en:Seamus' Hostility\n01:20:06.051                             : en:Masterless Samurai\n01:24:01.495                             : en:Fragile Hesitation\n01:27:05.345                             : en:Chases to Die For\n01:35:04.324                             : en:A Questionable Case\n01:39:31.924                             : en:Scary Ice Skating\n01:45:25.110                             : en:Gregor's Gunned Down\n01:49:22.264                             : en:A Frenzy of Fleeing\n01:51:49.411                             : en:Showdown with Seamus\n01:53:46.403                             : en:&quot;Peaceful&quot; Closure\n01:56:02.581                             : en:Credits","torrent":{"xt":"urn:btih:7e5befcf9cc460347b57c34a4098c5bb8c46d4f2","amp;dn":"Ronin.1998.1080p.BluRay.x264.DTS-FGT","amp;tr":["udp%3A%2F%2Ftracker.openbittorrent.com%3A80","udp%3A%2F%2Fopen.demonii.com%3A1337","udp%3A%2F%2Ftracker.coppersurfer.tk%3A6969","udp%3A%2F%2Fexodus.desync.com%3A6969"],"infoHash":"7e5befcf9cc460347b57c34a4098c5bb8c46d4f2","infoHashBuffer":{"type":"Buffer","data":[126,91,239,207,156,196,96,52,123,87,195,74,64,152,197,187,140,70,212,242]},"announce":[],"urlList":[]}}